<svg xmlns="http://www.w3.org/2000/svg" viewBox="0 0 64 64" width="64" height="64" fill="none" stroke="#2563EB" stroke-width="2.5" stroke-linecap="round" stroke-linejoin="round">
  <path d="M24 14c-5 0-9 4-9 9 0 2 .7 3.7 1.8 5.2C14 29.5 12 32.5 12 36c0 4 2.6 7.3 6.2 8.5C18.7 48 21 50 24 50c2 0 3.8-.9 5-2.4V14.4A6 6 0 0 0 24 14Z"></path>
  <path d="M40 14c5 0 9 4 9 9 0 2-.7 3.7-1.8 5.2C50 29.5 52 32.5 52 36c0 4-2.6 7.3-6.2 8.5C45.3 48 43 50 40 50c-2 0-3.8-.9-5-2.4V14.4A6 6 0 0 1 40 14Z"></path>
  <path d="M32 14v36" stroke-dasharray="2 3"></path>
</svg>